<?xml version="1.0" standalone="no"?>
<svg viewBox="0 0 200 200" xmlns="http://www.w3.org/2000/svg">
  <path fill="#BCFFE0" d="M44.4,-77.2C57.8,-69.3,69,-57.8,72.6,-44.3C76.3,-30.8,72.5,-15.4,69.4,-1.8C66.3,11.9,64,23.7,57.9,33C51.8,42.3,42,49,31.7,56.8C21.5,64.7,10.7,73.6,-0.9,75.3C-12.6,76.9,-25.2,71.2,-35.2,63.2C-45.2,55.2,-52.5,44.9,-59.4,34C-66.3,23,-72.8,11.5,-72.6,0.1C-72.4,-11.3,-65.4,-22.5,-59.9,-35.8C-54.3,-49.1,-50.2,-64.4,-40.4,-74.4C-30.7,-84.5,-15.3,-89.3,0.1,-89.5C15.5,-89.7,31.1,-85.2,44.4,-77.2Z" transform="translate(100 100)" />
</svg>
