<?xml version="1.0"?>
<svg xmlns="http://www.w3.org/2000/svg" xmlns:xlink="http://www.w3.org/1999/xlink" xmlns:svgjs="http://svgjs.com/svgjs" version="1.1" width="512" height="512" x="0" y="0" viewBox="0 0 511.999 511.999" style="enable-background:new 0 0 512 512" xml:space="preserve"><g>
<g xmlns="http://www.w3.org/2000/svg">
	<g>
		<path d="M433.892,0H329.341c-4.674,0-8.464,3.789-8.464,8.464v3.224h-14.479c-21.349,0-40.077,11.427-50.397,28.484    c-10.319-17.057-29.048-28.484-50.397-28.484h-14.479V8.464c0-4.676-3.79-8.464-8.464-8.464h-60.943    c-4.674,0-8.464,3.789-8.464,8.464c0,4.674,3.79,8.464,8.464,8.464h52.479v17.331h-40.064H53.738    c3.511-10.079,13.109-17.331,24.37-17.331c4.674,0,8.464-3.79,8.464-8.464c0-4.676-3.79-8.464-8.464-8.464    C54.55,0,35.383,19.165,35.383,42.724c0,23.336,24.048,42.321,53.606,42.321c25.888,0,47.547-14.563,52.527-33.857h41.142    c4.674,0,8.464-3.789,8.464-8.464V28.617h14.479c23.122,0,41.932,18.811,41.932,41.932V464.6h-47.128    c-21.468,0-38.935,17.467-38.935,38.935c0,4.676,3.79,8.464,8.464,8.464h102.158c4.674,0,8.464-3.789,8.464-8.464    c0-4.676-3.79-8.464-8.464-8.464h-92.001c3.323-7.946,11.177-13.543,20.314-13.543h111.186c9.137,0,16.991,5.596,20.314,13.543    H305.95c-4.674,0-8.464,3.789-8.464,8.464c0,4.676,3.79,8.464,8.464,8.464h36.114c4.674,0,8.464-3.789,8.464-8.464    c0-21.468-17.467-38.935-38.935-38.935h-47.129V70.55c0-23.122,18.812-41.932,41.932-41.932h14.479v14.107    c0,4.676,3.79,8.464,8.464,8.464h41.142c4.98,19.294,26.639,33.857,52.527,33.857c29.558,0,53.606-18.984,53.606-42.321    C476.615,19.165,457.45,0,433.892,0z M88.99,68.116c-15.619,0-29.336-7.176-34.498-16.928h68.995    C118.325,60.939,104.61,68.116,88.99,68.116z M423.009,68.116c-15.619,0-29.336-7.176-34.498-16.928h68.995    C452.345,60.939,438.63,68.116,423.009,68.116z M377.867,34.259h-40.064V16.928h96.087c11.262,0,20.859,7.252,24.37,17.331    H377.867z" fill="#fc2101" data-original="#000000" style=""/>
	</g>
</g>
<g xmlns="http://www.w3.org/2000/svg">
</g>
<g xmlns="http://www.w3.org/2000/svg">
</g>
<g xmlns="http://www.w3.org/2000/svg">
</g>
<g xmlns="http://www.w3.org/2000/svg">
</g>
<g xmlns="http://www.w3.org/2000/svg">
</g>
<g xmlns="http://www.w3.org/2000/svg">
</g>
<g xmlns="http://www.w3.org/2000/svg">
</g>
<g xmlns="http://www.w3.org/2000/svg">
</g>
<g xmlns="http://www.w3.org/2000/svg">
</g>
<g xmlns="http://www.w3.org/2000/svg">
</g>
<g xmlns="http://www.w3.org/2000/svg">
</g>
<g xmlns="http://www.w3.org/2000/svg">
</g>
<g xmlns="http://www.w3.org/2000/svg">
</g>
<g xmlns="http://www.w3.org/2000/svg">
</g>
<g xmlns="http://www.w3.org/2000/svg">
</g>
</g></svg>
