<?xml version="1.0" standalone="no"?>
<svg viewBox="0 0 200 200" xmlns="http://www.w3.org/2000/svg">
  <path fill="#BCFFE0" d="M40.1,-74C47.5,-65.2,45.9,-45.4,49,-31.2C52.2,-17,60.2,-8.5,65.1,2.8C70,14.2,71.8,28.3,66.3,38.6C60.9,48.8,48.2,55.1,35.9,61.8C23.6,68.6,11.8,75.8,0.9,74.2C-10,72.7,-20,62.3,-29.7,54.1C-39.4,45.9,-48.9,39.8,-59.9,31.1C-71,22.4,-83.6,11.2,-88.1,-2.6C-92.7,-16.4,-89.1,-32.9,-79.1,-43.4C-69.1,-53.9,-52.8,-58.5,-38.5,-63.3C-24.3,-68.1,-12.1,-73.2,2.1,-76.9C16.4,-80.5,32.7,-82.8,40.1,-74Z" transform="translate(100 100)" />
</svg>
