<?xml version="1.0" standalone="no"?>
<svg viewBox="0 0 200 200" xmlns="http://www.w3.org/2000/svg">
  <path fill="#BCFFE0" d="M38.3,-63C49.6,-59.8,58.7,-49.5,68.2,-37.8C77.7,-26.1,87.6,-13.1,85.2,-1.4C82.8,10.3,68.2,20.6,57.6,30.4C47,40.2,40.5,49.4,31.5,55.4C22.6,61.3,11.3,63.8,0.2,63.6C-11,63.3,-22,60.2,-35.5,56.9C-49,53.7,-65,50.2,-70.3,40.7C-75.6,31.2,-70.3,15.6,-67.6,1.6C-64.8,-12.4,-64.6,-24.8,-58.1,-32.3C-51.6,-39.8,-38.7,-42.3,-28,-45.8C-17.2,-49.2,-8.6,-53.7,2.4,-57.9C13.5,-62.1,27,-66.1,38.3,-63Z" transform="translate(100 100)" />
</svg>
