<?xml version="1.0" standalone="no"?>
<svg viewBox="0 0 200 200" xmlns="http://www.w3.org/2000/svg">
  <path fill="#BCFFE0" d="M38.7,-63.1C49.7,-60.7,57.9,-49.4,62.6,-37.4C67.4,-25.4,68.8,-12.7,66.3,-1.4C63.9,9.9,57.6,19.7,54.1,34C50.7,48.3,50.1,67,41.5,75.8C33,84.7,16.5,83.8,2.4,79.6C-11.7,75.5,-23.5,68.2,-37.5,62.5C-51.5,56.8,-67.9,52.7,-75.3,42.6C-82.8,32.4,-81.4,16.2,-77.9,2C-74.4,-12.2,-68.8,-24.3,-61,-33.9C-53.2,-43.4,-43.1,-50.3,-32.6,-53C-22,-55.6,-11,-53.9,1.4,-56.4C13.9,-58.8,27.7,-65.4,38.7,-63.1Z" transform="translate(100 100)" />
</svg>
