<?xml version="1.0" standalone="no"?>
<svg viewBox="0 0 200 200" xmlns="http://www.w3.org/2000/svg">
  <path fill="#BCFFE0" d="M36.2,-67.6C44.6,-57.8,47.4,-43.4,52.8,-31.4C58.1,-19.3,65.9,-9.7,65.7,-0.1C65.5,9.4,57.3,18.9,51.8,30.7C46.4,42.6,43.7,56.9,35.6,62.2C27.4,67.4,13.7,63.6,-0.4,64.2C-14.4,64.9,-28.8,69.9,-40.3,66.6C-51.8,63.2,-60.4,51.5,-62.9,39C-65.4,26.6,-61.8,13.3,-61.4,0.3C-60.9,-12.8,-63.7,-25.5,-59.9,-35.8C-56.1,-46,-45.8,-53.8,-34.7,-62C-23.7,-70.2,-11.8,-78.9,1,-80.7C13.9,-82.5,27.8,-77.4,36.2,-67.6Z" transform="translate(100 100)" />
</svg>
