<?xml version="1.0" standalone="no"?>
<svg viewBox="0 0 200 200" xmlns="http://www.w3.org/2000/svg">
  <path fill="#BCFFE0" d="M43,-79.4C52.9,-68.8,56.2,-51.5,61.6,-37.2C67.1,-22.9,74.7,-11.4,76.8,1.2C78.9,13.8,75.3,27.6,69,40.5C62.7,53.4,53.7,65.3,41.7,68.9C29.7,72.5,14.9,67.8,2.6,63.3C-9.7,58.8,-19.4,54.6,-29.1,49.7C-38.7,44.8,-48.4,39.1,-56.9,30.7C-65.3,22.3,-72.6,11.2,-71.3,0.8C-69.9,-9.6,-59.9,-19.2,-53.3,-30.9C-46.7,-42.5,-43.5,-56.1,-35.2,-67.6C-26.8,-79.2,-13.4,-88.7,1.6,-91.4C16.6,-94.1,33.1,-90.1,43,-79.4Z" transform="translate(100 100)" />
</svg>
