<?xml version="1.0" standalone="no"?>
<svg viewBox="0 0 200 200" xmlns="http://www.w3.org/2000/svg">
  <path fill="#BCFFE0" d="M40.6,-65.8C52.5,-63.5,61.9,-52.4,70.3,-39.9C78.7,-27.5,86.1,-13.7,82.6,-2C79.1,9.7,64.8,19.4,53.6,27C42.4,34.5,34.2,39.9,25.8,47.4C17.4,54.9,8.7,64.7,-3.3,70.5C-15.4,76.3,-30.8,78.1,-40.8,71.5C-50.8,64.9,-55.4,49.8,-61.1,36.5C-66.8,23.1,-73.6,11.6,-73.5,0C-73.5,-11.5,-66.8,-23.1,-61.5,-37.1C-56.2,-51.2,-52.4,-67.7,-42.4,-71.1C-32.4,-74.4,-16.2,-64.5,-0.9,-62.9C14.4,-61.3,28.7,-68,40.6,-65.8Z" transform="translate(100 100)" />
</svg>
