<?xml version="1.0" standalone="no"?>
<svg viewBox="0 0 200 200" xmlns="http://www.w3.org/2000/svg">
  <path fill="#BCFFE0" d="M37.3,-68.5C46,-59.5,49.3,-44.9,57.4,-32.6C65.5,-20.2,78.5,-10.1,78.4,-0.1C78.3,10,65.1,20,57.5,33.2C49.9,46.4,47.8,62.8,39.2,66.5C30.5,70.2,15.2,61.1,2.7,56.4C-9.8,51.7,-19.6,51.4,-29.9,48.6C-40.3,45.9,-51,40.8,-60.6,32.3C-70.2,23.8,-78.7,11.9,-81,-1.3C-83.3,-14.6,-79.6,-29.2,-73.4,-43.6C-67.1,-57.9,-58.5,-72.1,-45.8,-78.9C-33.2,-85.7,-16.6,-85.1,-1.2,-83C14.3,-81,28.5,-77.5,37.3,-68.5Z" transform="translate(100 100)" />
</svg>
