<?xml version="1.0" standalone="no"?>
<svg viewBox="0 0 200 200" xmlns="http://www.w3.org/2000/svg">
  <path fill="#BCFFE0" d="M36.2,-62.2C44.2,-58,46.2,-42.9,53.3,-30.7C60.5,-18.6,72.7,-9.3,73,0.2C73.3,9.6,61.7,19.2,54.3,31C46.9,42.7,43.7,56.5,35.4,63.5C27.1,70.5,13.5,70.6,2.2,66.7C-9.1,62.9,-18.3,55.2,-30.9,50.7C-43.5,46.2,-59.6,44.9,-65.5,37C-71.4,29.1,-67.2,14.6,-64.9,1.3C-62.6,-11.9,-62.3,-23.9,-56.7,-32.3C-51,-40.6,-40,-45.4,-29.7,-48.3C-19.3,-51.1,-9.7,-51.9,2.2,-55.7C14.1,-59.5,28.1,-66.3,36.2,-62.2Z" transform="translate(100 100)" />
</svg>
