<?xml version="1.0" standalone="no"?>
<svg viewBox="0 0 200 200" xmlns="http://www.w3.org/2000/svg">
  <path fill="#BCFFE0" d="M34.4,-59C45.5,-53.2,56,-45.8,64.3,-35.7C72.5,-25.6,78.4,-12.8,76.1,-1.3C73.9,10.2,63.4,20.4,57.6,34.5C51.7,48.7,50.3,66.7,41.5,77.6C32.6,88.5,16.3,92.1,0.1,91.9C-16.1,91.7,-32.1,87.6,-45.7,79.5C-59.3,71.4,-70.5,59.3,-71.7,45.3C-73,31.4,-64.3,15.7,-64.1,0.1C-63.8,-15.4,-72,-30.9,-70.3,-43.9C-68.5,-56.9,-56.8,-67.5,-43.4,-71.9C-30,-76.4,-15,-74.8,-1.7,-71.9C11.7,-69,23.3,-64.8,34.4,-59Z" transform="translate(100 100)" />
</svg>
