<?xml version="1.0" standalone="no"?>
<svg viewBox="0 0 200 200" xmlns="http://www.w3.org/2000/svg">
  <path fill="#BCFFE0" d="M34.6,-57C47.5,-52.5,62.4,-48.5,72.1,-39.1C81.8,-29.7,86.3,-14.9,83,-1.9C79.7,11.1,68.7,22.2,59.6,32.7C50.6,43.3,43.6,53.3,34,58.9C24.4,64.4,12.2,65.6,1.4,63.2C-9.4,60.8,-18.8,54.9,-32.4,51.6C-46,48.3,-63.7,47.7,-72.5,39.5C-81.2,31.3,-81.1,15.7,-77.8,1.9C-74.6,-12,-68.4,-23.9,-61.7,-35.8C-55.1,-47.6,-48,-59.3,-37.7,-65.3C-27.3,-71.3,-13.7,-71.6,-1.4,-69.2C10.9,-66.8,21.7,-61.6,34.6,-57Z" transform="translate(100 100)" />
</svg>
