<?xml version="1.0" standalone="no"?>
<svg viewBox="0 0 200 200" xmlns="http://www.w3.org/2000/svg">
  <path fill="#BCFFE0" d="M28,-50.6C36.7,-43.5,44.6,-36.9,55.7,-28.5C66.8,-20.2,81.2,-10.1,82.9,1C84.7,12.1,73.9,24.3,64.2,35.1C54.5,45.9,46,55.4,35.5,64.5C25,73.6,12.5,82.3,0.4,81.6C-11.8,81,-23.5,71.1,-37.8,64.2C-52,57.2,-68.8,53.3,-77.7,43.1C-86.7,32.9,-87.9,16.4,-85.2,1.5C-82.6,-13.3,-76,-26.7,-66,-35.2C-56,-43.6,-42.7,-47.2,-31.1,-52.7C-19.5,-58.3,-9.8,-65.8,-0.1,-65.6C9.6,-65.5,19.3,-57.8,28,-50.6Z" transform="translate(100 100)" />
</svg>
