<?xml version="1.0" standalone="no"?>
<svg viewBox="0 0 200 200" xmlns="http://www.w3.org/2000/svg">
  <path fill="#BCFFE0" d="M31.7,-56.5C44,-47.8,58.8,-45.2,67.4,-36.8C76,-28.3,78.4,-14.2,76.7,-1C74.9,12.2,69,24.3,60.1,32.2C51.2,40.1,39.3,43.7,28.7,49.4C18.2,55.2,9.1,63.1,-2.9,68.2C-15,73.3,-30,75.6,-41.7,70.5C-53.5,65.5,-62.1,53.1,-68.9,40.2C-75.6,27.2,-80.7,13.6,-81.6,-0.5C-82.5,-14.6,-79.3,-29.3,-73.1,-43.3C-67,-57.4,-57.8,-70.8,-45.1,-79.3C-32.4,-87.7,-16.2,-91.1,-3.3,-85.5C9.7,-79.8,19.4,-65.1,31.7,-56.5Z" transform="translate(100 100)" />
</svg>
