<?xml version="1.0" standalone="no"?>
<svg viewBox="0 0 200 200" xmlns="http://www.w3.org/2000/svg">
  <path fill="#BCFFE0" d="M31.6,-59.3C41.3,-49.1,49.7,-41.3,58.6,-31.8C67.6,-22.4,77.1,-11.2,78.9,1.1C80.7,13.3,74.9,26.6,66.4,36.9C58,47.2,46.8,54.6,35.3,57.9C23.8,61.2,11.9,60.4,1.6,57.6C-8.6,54.8,-17.3,49.9,-26.9,45.4C-36.5,41,-47,37.1,-59.2,29.7C-71.4,22.2,-85.2,11.1,-88.9,-2.1C-92.6,-15.3,-86.1,-30.7,-74.9,-39.8C-63.6,-48.9,-47.6,-51.8,-34.3,-59.9C-21.1,-68,-10.5,-81.2,0.2,-81.5C10.9,-81.9,21.9,-69.4,31.6,-59.3Z" transform="translate(100 100)" />
</svg>
