<?xml version="1.0" standalone="no"?>
<svg viewBox="0 0 200 200" xmlns="http://www.w3.org/2000/svg">
  <path fill="#BCFFE0" d="M41.8,-72.4C55.5,-64.5,69,-56,75.5,-43.9C82.1,-31.7,81.8,-15.9,78.5,-1.9C75.2,12.1,69,24.1,59.8,31.8C50.6,39.4,38.5,42.5,28,49.2C17.6,55.9,8.8,66.1,0.2,65.7C-8.4,65.3,-16.7,54.4,-29.6,49.1C-42.4,43.8,-59.8,44.2,-69.1,36.9C-78.5,29.7,-79.8,14.8,-77.4,1.4C-75,-12.1,-68.8,-24.1,-62.9,-37.3C-57,-50.4,-51.2,-64.6,-40.8,-74.4C-30.4,-84.2,-15.2,-89.5,-0.6,-88.6C14,-87.6,28.1,-80.3,41.8,-72.4Z" transform="translate(100 100)" />
</svg>
