<?xml version="1.0" standalone="no"?>
<svg viewBox="0 0 200 200" xmlns="http://www.w3.org/2000/svg">
  <path fill="#BCFFE0" d="M32.2,-55.1C41.6,-50.3,49.1,-41.5,52.4,-31.6C55.7,-21.8,54.8,-10.9,58.7,2.2C62.5,15.3,71.1,30.7,68.2,41.2C65.3,51.7,50.9,57.4,37.6,59.6C24.3,61.8,12.2,60.4,0,60.4C-12.1,60.3,-24.2,61.6,-35.4,58.2C-46.6,54.9,-57,46.9,-59.6,36.4C-62.2,25.9,-57.1,13,-55.7,0.8C-54.3,-11.4,-56.7,-22.7,-56.3,-37C-55.9,-51.3,-52.7,-68.5,-42.9,-73.1C-33,-77.7,-16.5,-69.7,-2.6,-65.2C11.4,-60.8,22.8,-59.9,32.2,-55.1Z" transform="translate(100 100)" />
</svg>
