<?xml version="1.0" standalone="no"?>
<svg viewBox="0 0 200 200" xmlns="http://www.w3.org/2000/svg">
  <path fill="#BCFFE0" d="M42.6,-68C56.8,-65.5,71,-57.4,79.7,-45.1C88.4,-32.8,91.5,-16.4,85.9,-3.2C80.3,9.9,65.9,19.8,57.8,33.1C49.7,46.4,47.8,62.9,39.2,74.6C30.6,86.3,15.3,93.1,1.9,89.8C-11.4,86.4,-22.8,72.9,-34.9,63.2C-47,53.5,-59.8,47.7,-64.8,37.8C-69.9,27.9,-67.4,14,-63.2,2.4C-59,-9.1,-53.2,-18.3,-47.8,-27.6C-42.4,-37,-37.4,-46.6,-29.5,-52.6C-21.6,-58.7,-10.8,-61.2,1.7,-64.2C14.2,-67.1,28.4,-70.4,42.6,-68Z" transform="translate(100 100)" />
</svg>
