<?xml version="1.0"?>
<svg xmlns="http://www.w3.org/2000/svg" xmlns:xlink="http://www.w3.org/1999/xlink" xmlns:svgjs="http://svgjs.com/svgjs" version="1.1" width="512" height="512" x="0" y="0" viewBox="0 0 512 512" style="enable-background:new 0 0 512 512" xml:space="preserve" class=""><g>
<g xmlns="http://www.w3.org/2000/svg">
	<path d="M341.279,187.25c0,4.142,3.358,7.5,7.5,7.5h98.718v151.178H64.503V194.75h254.275c4.142,0,7.5-3.358,7.5-7.5   s-3.358-7.5-7.5-7.5H57.003c-4.142,0-7.5,3.358-7.5,7.5v166.178c0,4.142,3.358,7.5,7.5,7.5h397.993c4.142,0,7.5-3.358,7.5-7.5   V187.25c0-4.142-3.358-7.5-7.5-7.5H348.779C344.637,179.75,341.279,183.108,341.279,187.25z" fill="#fc2101" data-original="#000000" style="" class=""/>
	<path d="M206.804,227.633c-12.275-14.179-30.727-22.704-49.503-22.704c-35.359,0-65.41,30.155-65.41,65.411   c0,28.938,19.404,54.77,47.191,62.82c12.109,3.087,24.354,3.499,36.438,0c27.785-8.046,47.191-33.879,47.191-62.82   C222.71,254.911,216.994,239.405,206.804,227.633z M149.635,320.162l7.666-50.446l7.666,50.446   C159.893,320.944,154.709,320.944,149.635,320.162z M179.448,315.616c0,0-8.217-54.061-8.233-54.147   c-1.277-6.796-7-11.542-13.915-11.542c-6.916,0-12.638,4.747-13.915,11.542c-0.016,0.086-8.233,54.147-8.233,54.147   c-16.987-8.348-28.263-25.909-28.263-45.276c0-9.382,2.584-18.168,7.066-25.698l4.895,4.895c2.894,2.895,7.712,2.895,10.606,0   c2.929-2.929,2.929-7.678,0-10.606l-5.956-5.956c7.193-6.513,16.267-10.981,26.3-12.484v10.404c0,4.142,3.358,7.5,7.5,7.5   s7.5-3.358,7.5-7.5V220.49c10.032,1.503,19.107,5.971,26.3,12.484l-5.956,5.956c-2.929,2.929-2.929,7.678,0,10.606   c2.896,2.895,7.713,2.895,10.607,0l4.895-4.895c4.482,7.531,7.065,16.317,7.065,25.698   C207.71,289.707,196.436,307.268,179.448,315.616z" fill="#fc2101" data-original="#000000" style="" class=""/>
	<path d="M285.71,237.158c-18.297,0-33.182,14.885-33.182,33.182c0,18.296,14.885,33.182,33.182,33.182s33.182-14.885,33.182-33.182   C318.893,252.043,304.007,237.158,285.71,237.158z M285.71,288.521c-10.026,0-18.182-8.156-18.182-18.182   c0-10.026,8.156-18.182,18.182-18.182s18.182,8.156,18.182,18.182C303.893,280.365,295.736,288.521,285.71,288.521z" fill="#fc2101" data-original="#000000" style="" class=""/>
	<path d="M417.506,270.34c0-18.297-14.885-33.182-33.182-33.182s-33.182,14.885-33.182,33.182c0,18.296,14.885,33.182,33.182,33.182   S417.506,288.636,417.506,270.34z M366.142,270.34c0-10.026,8.156-18.182,18.182-18.182s18.182,8.156,18.182,18.182   c0,10.025-8.156,18.182-18.182,18.182S366.142,280.365,366.142,270.34z" fill="#fc2101" data-original="#000000" style="" class=""/>
	<path d="M161.718,384.894c-4.142,0-7.5,3.358-7.5,7.5v17.063c0,4.142,3.358,7.5,7.5,7.5s7.5-3.358,7.5-7.5v-17.063   C169.218,388.252,165.86,384.894,161.718,384.894z" fill="#fc2101" data-original="#000000" style="" class=""/>
	<path d="M350.282,384.894c-4.142,0-7.5,3.358-7.5,7.5v17.063c0,4.142,3.358,7.5,7.5,7.5s7.5-3.358,7.5-7.5v-17.063   C357.782,388.252,354.424,384.894,350.282,384.894z" fill="#fc2101" data-original="#000000" style="" class=""/>
	<path d="M284.206,402.624c-3.118-2.726-7.856-2.408-10.583,0.71c-4.294,4.914-10.718,7.731-17.623,7.731   s-13.329-2.818-17.623-7.731c-2.727-3.119-7.465-3.437-10.583-0.711c-3.119,2.726-3.438,7.464-0.711,10.583   c7.144,8.172,17.683,12.859,28.917,12.859c11.233,0,21.773-4.687,28.917-12.859C287.643,410.087,287.325,405.35,284.206,402.624z" fill="#fc2101" data-original="#000000" style="" class=""/>
	<path d="M41.068,134.429c-20.339,0-36.886,16.547-36.886,36.886V437.85c0,17.77,12.631,32.643,29.386,36.117v16.789   c0,11.714,9.53,21.244,21.244,21.244h59.12c11.713,0,21.243-9.53,21.243-21.244v-16.021h241.649v16.021   c0,11.714,9.53,21.244,21.243,21.244h59.12c11.714,0,21.244-9.53,21.244-21.244v-16.789c16.755-3.475,29.386-18.348,29.386-36.117   V171.315c0-20.339-16.547-36.886-36.886-36.886h-52.668v-22.732c0-8.892,7.234-16.126,16.126-16.126h65.928   c4.142,0,7.5-3.358,7.5-7.5V7.5c0-4.142-3.358-7.5-7.5-7.5H434.39C372.8,0,322.693,50.107,322.693,111.697v22.732H154.994v-27.635   h1.009c11.174,0,20.266-9.091,20.266-20.266V60.551c0-11.175-9.091-20.266-20.266-20.266h-48.784c-4.142,0-7.5,3.358-7.5,7.5   s3.358,7.5,7.5,7.5h48.784c2.903,0,5.266,2.362,5.266,5.266v25.977c0,2.904-2.362,5.266-5.266,5.266h-8.509H66.81h-8.508   c-2.904,0-5.267-2.362-5.267-5.266V60.551c0-2.904,2.363-5.266,5.267-5.266h18.916c4.142,0,7.5-3.358,7.5-7.5s-3.358-7.5-7.5-7.5   H58.302c-11.175,0-20.267,9.091-20.267,20.266v25.977c0,11.175,9.091,20.266,20.267,20.266h1.008v27.635H41.068z M120.175,490.756   c0,3.443-2.801,6.244-6.243,6.244h-59.12c-3.443,0-6.244-2.801-6.244-6.244v-16.021h71.607V490.756z M463.432,490.756   c0,3.443-2.801,6.244-6.244,6.244h-59.12c-3.442,0-6.243-2.801-6.243-6.244v-16.021h71.607V490.756z M492.818,171.315V437.85   c0,12.068-9.818,21.885-21.886,21.885H41.068c-12.068,0-21.886-9.817-21.886-21.885V171.315c0-12.068,9.818-21.886,21.886-21.886   h429.864C483,149.429,492.818,159.247,492.818,171.315z M337.693,111.697C337.693,58.378,381.071,15,434.39,15h58.428v65.571   H434.39c-17.163,0-31.126,13.963-31.126,31.126v22.732h-65.571V111.697z M74.31,106.794h65.684v27.635H74.31V106.794z" fill="#fc2101" data-original="#000000" style="" class=""/>
</g>















</g></svg>
