<?xml version="1.0"?>
<svg xmlns="http://www.w3.org/2000/svg" xmlns:xlink="http://www.w3.org/1999/xlink" xmlns:svgjs="http://svgjs.com/svgjs" version="1.1" width="512" height="512" x="0" y="0" viewBox="0 0 511.99978 511" style="enable-background:new 0 0 512 512" xml:space="preserve" class=""><g><path xmlns="http://www.w3.org/2000/svg" d="m510.378906 44.558594c-1.769531-2.628906-4.71875-4.203125-7.890625-4.203125h-10.78125c1.90625-3.734375 2.980469-7.957031 2.980469-12.425781 0-15.125-12.304688-27.429688-27.425781-27.429688-15.125 0-27.429688 12.304688-27.429688 27.429688 0 4.46875 1.074219 8.691406 2.980469 12.425781h-14.378906c-3.367188 0-6.511719 1.804687-8.207032 4.710937-1.699218 2.90625-1.730468 6.53125-.078124 9.464844l12.382812 21.976562c1.398438 2.480469 3.835938 4.179688 6.585938 4.679688v23.835938c-12.308594-.40625-22.429688-1.820313-30.964844-3.984376-.390625-.140624-.792969-.246093-1.210938-.316406-22.203125-5.921875-33.515625-17.03125-45.273437-28.578125-16.246094-15.953125-33.015625-32.421875-75.964844-34.09375-1.261719-8.339843-8.476563-14.75-17.164063-14.75h-25.078124c-8.6875 0-15.902344 6.410157-17.164063 14.75-42.949219 1.671875-59.71875 18.140625-75.964844 34.09375-11.757812 11.546875-23.070312 22.65625-45.273437 28.578125-.414063.070313-.820313.175782-1.210938.316406-8.535156 2.164063-18.65625 3.578126-30.964844 3.984376v-23.835938c2.75-.5 5.1875-2.199219 6.589844-4.6875l12.378906-21.96875c1.648438-2.933594 1.621094-6.558594-.078124-9.464844-1.695313-2.90625-4.839844-4.710937-8.207032-4.710937h-14.378906c1.90625-3.730469 2.980469-7.957031 2.980469-12.425781 0-15.125-12.304688-27.429688-27.429688-27.429688-15.121093 0-27.429687 12.304688-27.429687 27.429688 0 4.46875 1.078125 8.691406 2.980468 12.425781h-10.777343c-3.171875 0-6.121094 1.570312-7.890625 4.203125-1.769532 2.632812-2.113282 5.957031-.917969 8.894531l8.957031 21.972656c1.226563 3.003907 3.84375 5.117188 6.933594 5.730469v42.765625c0 4.140625 3.359375 7.5 7.5 7.5 4.144531 0 7.5-3.359375 7.5-7.5v-42.578125h26.289062v207.34375h-26.289062v-134.648438c0-4.140624-3.355469-7.5-7.5-7.5-4.140625 0-7.5 3.359376-7.5 7.5v140.144532c0 5.242187 4.265625 9.507812 9.507812 9.507812h39.28125.039063 381.15625.039063 39.28125c5.242187 0 9.507812-4.265625 9.507812-9.507812v-166.484375c0-4.140625-3.355469-7.5-7.5-7.5s-7.5 3.359375-7.5 7.5v160.992187h-26.289062v-207.347656h26.289062v16.59375c0 4.140625 3.355469 7.5 7.5 7.5s7.5-3.359375 7.5-7.5v-16.777344c3.089844-.617187 5.707031-2.730468 6.933594-5.734375l8.957031-21.972656c1.195313-2.9375.851563-6.261719-.917969-8.894531zm-55.546875-16.628906c0-6.855469 5.574219-12.429688 12.429688-12.429688 6.851562 0 12.429687 5.574219 12.429687 12.429688 0 6.851562-5.578125 12.425781-12.429687 12.425781-6.855469 0-12.429688-5.574219-12.429688-12.425781zm-15.714843 212.136718h-25.957032v-122.667968c7.632813 1.398437 16.21875 2.316406 25.957032 2.625zm-69.109376 0v-140.53125c7.511719 5.496094 16.484376 10.484375 28.152344 14.175782v126.355468zm-15-153.460937v153.460937h-28.152343v-176.964844c9.632812 5.339844 16.730469 12.308594 24.304687 19.746094 1.265625 1.246094 2.542969 2.5 3.847656 3.757813zm-69.109374-33.535157c10.304687.441407 18.769531 1.800782 25.953124 3.871094v183.125h-25.953124zm-59.796876 186.996094h-25.957031v-183.125c7.1875-2.070312 15.648438-3.429687 25.957031-3.871094zm-40.957031-176.964844v176.964844h-28.152343v-153.460937c1.304687-1.257813 2.582031-2.511719 3.847656-3.757813 7.574218-7.4375 14.671875-14.40625 24.304687-19.746094zm-71.304687 176.964844v-126.355468c11.671875-3.691407 20.640625-8.675782 28.152344-14.175782v140.53125zm-15-122.667968v122.667968h-25.957032v-120.042968c9.738282-.308594 18.320313-1.226563 25.957032-2.625zm-66.53125-89.46875c0-6.855469 5.578125-12.429688 12.429687-12.429688 6.855469 0 12.429688 5.574219 12.429688 12.429688 0 6.851562-5.574219 12.425781-12.429688 12.425781-6.851562 0-12.429687-5.574219-12.429687-12.425781zm-10.152344 38.414062-4.476562-10.988281h56.488281l-6.1875 10.988281zm50.726562 188.722656h153.21875v33.621094h-153.21875zm168.21875-214.410156c0-1.300781 1.058594-2.355469 2.355469-2.355469h5.105469v59.28125c0 4.144531 3.355469 7.5 7.5 7.5s7.5-3.355469 7.5-7.5v-59.28125h4.976562c1.300782 0 2.359376 1.054688 2.359376 2.355469v248.03125h-7.335938v-160.988281c0-4.140625-3.355469-7.5-7.5-7.5s-7.5 3.359375-7.5 7.5v160.988281h-7.460938zm198.015626 248.03125h-153.21875v-33.621094h153.21875zm4.902343-222.34375-6.1875-10.988281h56.488281l-4.476562 10.988281zm0 0" fill="#fc2101" data-original="#000000" style="" class=""/></g></svg>
