<?xml version="1.0"?>
<svg xmlns="http://www.w3.org/2000/svg" xmlns:xlink="http://www.w3.org/1999/xlink" xmlns:svgjs="http://svgjs.com/svgjs" version="1.1" width="512" height="512" x="0" y="0" viewBox="0 0 512 512" style="enable-background:new 0 0 512 512" xml:space="preserve" class=""><g><g xmlns="http://www.w3.org/2000/svg"><path d="M88,128H196a36,36,0,0,0,3.454-71.836A56,56,0,0,0,97.41,32.929,48,48,0,1,0,88,128Zm0-80a31.916,31.916,0,0,1,10.573,1.8,8,8,0,0,0,9.772-3.919A40,40,0,0,1,184,63.905c0,.1-.007.2-.008.3a8,8,0,0,0,9.134,8A20.328,20.328,0,0,1,196,72a20,20,0,0,1,0,40H88a32,32,0,0,1,0-64Z" fill="#fc2101" data-original="#000000" style=""/><path d="M332,184H440a48,48,0,1,0-9.41-95.071,56,56,0,0,0-102.044,23.235A36,36,0,0,0,332,184Zm0-56a20.233,20.233,0,0,1,2.871.209,8,8,0,0,0,9.137-8c0-.1,0-.2-.008-.3a40,40,0,0,1,75.655-18.028,8,8,0,0,0,9.772,3.919A32,32,0,1,1,440,168H332a20,20,0,0,1,0-40Z" fill="#fc2101" data-original="#000000" style=""/><path d="M496,488H448V447.48a64,64,0,1,0-16,0v12.7l-29.03-11.61a8,8,0,1,0-5.94,14.86L432,477.42V488H280V407.71a112,112,0,1,0-16,0V428.9l-37.47-12.49a8,8,0,0,0-5.06,15.18L264,445.77V488H88V445.77l42.53-14.18a8,8,0,1,0-5.06-15.18L88,428.9V415.54A72.083,72.083,0,0,0,152,344a71.316,71.316,0,0,0-18.32-47.99,56.123,56.123,0,0,0-10.31-51.44,48,48,0,1,0-86.74,0,56.123,56.123,0,0,0-10.31,51.44A71.316,71.316,0,0,0,8,344a72.083,72.083,0,0,0,64,71.54V488H16a8,8,0,0,0,0,16H496a8,8,0,0,0,0-16ZM80,304a8,8,0,0,0-8,8v41.05l-11.56-7.71a8,8,0,0,0-8.88,13.32L72,372.28v27.14a56,56,0,0,1-30.95-95.66,8,8,0,0,0,1.86-8.75,40.044,40.044,0,0,1,9.1-43.58,7.989,7.989,0,0,0,1.11-10.06,32,32,0,1,1,53.76,0,7.989,7.989,0,0,0,1.11,10.06,40.044,40.044,0,0,1,9.1,43.58,8,8,0,0,0,1.86,8.75A56,56,0,0,1,88,399.42V312A8,8,0,0,0,80,304Zm192,32a8,8,0,0,0-8,8v47.66a96,96,0,1,1,16,0V374.25l25.94-6.49a8,8,0,1,0-3.88-15.52L280,357.75V344A8,8,0,0,0,272,336Zm168,40a8,8,0,0,0-8,8v47.32a48,48,0,1,1,16,0V384A8,8,0,0,0,440,376Z" fill="#fc2101" data-original="#000000" style=""/></g></g></svg>
